<svg width="25" height="24" viewBox="0 0 25 24" fill="none" xmlns="http://www.w3.org/2000/svg">
<path d="M9.875 21V13.6C9.875 13.0399 9.875 12.7599 9.98399 12.546C10.0799 12.3578 10.2328 12.2049 10.421 12.109C10.6349 12 10.9149 12 11.475 12H14.275C14.8351 12 15.1151 12 15.329 12.109C15.5172 12.2049 15.6701 12.3578 15.766 12.546C15.875 12.7599 15.875 13.0399 15.875 13.6V21M11.8927 2.764L5.11039 8.03912C4.65702 8.39175 4.43034 8.56806 4.26703 8.78886C4.12237 8.98444 4.0146 9.20478 3.94903 9.43905C3.875 9.70352 3.875 9.9907 3.875 10.5651V17.8C3.875 18.9201 3.875 19.4801 4.09299 19.908C4.28473 20.2843 4.59069 20.5903 4.96702 20.782C5.39484 21 5.95489 21 7.075 21H18.675C19.7951 21 20.3552 21 20.783 20.782C21.1593 20.5903 21.4653 20.2843 21.657 19.908C21.875 19.4801 21.875 18.9201 21.875 17.8V10.5651C21.875 9.9907 21.875 9.70352 21.801 9.43905C21.7354 9.20478 21.6276 8.98444 21.483 8.78886C21.3197 8.56806 21.093 8.39175 20.6396 8.03913L13.8573 2.764C13.506 2.49075 13.3303 2.35412 13.1363 2.3016C12.9652 2.25526 12.7848 2.25526 12.6137 2.3016C12.4197 2.35412 12.244 2.49075 11.8927 2.764Z" stroke="#C6C6C6" stroke-width="2" stroke-linecap="round" stroke-linejoin="round"/>
</svg>
